<?xml version="1.0" encoding="utf-8"?><svg viewBox="0 0 353 200" xmlns="http://www.w3.org/2000/svg" xmlns:xlink="http://www.w3.org/1999/xlink"><style>:root>svg{display:none}:root>svg:target{display:block}</style><svg fill="none" viewBox="0 0 199 200" id="arrow" xmlns="http://www.w3.org/2000/svg"><path d="M0 150.287v-12.643h12.348v12.643H0zM12.348 137.644v-12.931H24.12v12.931H12.348zM24.121 124.713v-12.644h12.635v12.644H24.121zM36.756 112.069V99.713h12.922v12.356H36.756zM49.678 99.712V87.931h12.635v11.781H49.678zM199 0v112.069h-12.635v25.575h-11.774v12.643h-12.348v11.782H136.686v13.218H62.313V200H49.678v-37.931h12.635v-50h12.06v50h50.253v-11.782h24.982v-12.643h12.635v-25.575h12.348V37.643h11.774V0H199z" fill="#ED70D3"/><path d="M62.313 124.79V162.069H49.678v25H36.756v-11.781H24.121v-13.219H12.348V137.644H24.12v-12.931h12.635v-12.644h12.922V99.713h12.635v25.077zM174.592 112.069h-12.348V137.643h-12.635v12.644h-24.982v11.782H74.374v-50H136.687V99.712H162.244V87.931h12.348V112.069z" fill="#71EA8B"/></svg><svg fill="none" viewBox="0 0 353 134" id="big-link-bg" xmlns="http://www.w3.org/2000/svg"><path d="M24.288 36.423v18.21h6.07V30.352h-6.07v6.071z" fill="#71EA8B"/><path d="M36.43 24.282h-6.073v6.071h6.072v-6.07zM54.646 18.21H36.43v6.072h24.288V18.21h-6.072z" fill="#71EA8B"/><path d="M36.43 97.128h-6.072v6.071h6.073v-6.071z" fill="#910072"/><path d="M30.361 103.198H24.29v6.071h6.072v-6.071zM24.289 109.268h-6.072v6.07h6.072v-6.07zM18.217 115.338h-6.072v6.071h6.072v-6.071zM12.144 121.409H6.072v6.071h6.072v-6.071zM333.495 127.477H12.144v6.07h327.884v-6.07H333.495zM309.418 103.196H36.431v6.071h279.307v-6.071h-6.32zM321.81 97.126h-6.072v6.071h6.072v-6.071zM327.882 103.196h-6.072v6.071h6.072v-6.071zM333.954 109.268h-6.072v6.07h6.072v-6.07zM340.026 115.336h-6.072v6.071h6.072v-6.071zM346.098 121.406h-6.072v6.071h6.072v-6.071zM346.098 12.138V121.406h6.072V12.138h-6.072zM327.882 91.055V30.351h-6.072V97.126h6.072v-6.07zM321.81 24.28h-6.072v6.07h6.072v-6.07zM327.882 18.209h-6.072v6.07h6.072v-6.07zM340.026 18.208v-6.07h-12.144v6.07h12.144zM346.098 6.067h-6.072v6.071h6.072v-6.07z" fill="#910072"/><path d="M30.361 18.21H24.29v6.07h6.072v-6.07zM18.217 18.21h6.072v-6.07H12.145v6.07h6.072zM12.144 6.07H6.072v6.07h6.072V6.07zM24.29 60.703v36.423h6.07V54.633h-6.07v6.07zM0 18.21V121.408h6.072V12.14H0v6.07zM307.237 0H12.145v6.069h327.881V0h-32.789zM273.235 18.21H60.719v6.07H315.738v-6.07h-42.503z" fill="#FFCBF4"/><path d="M6.072 18.21v103.197h6.072v-6.071h6.072v-6.07h6.072v-6.069h6.07v-6.07h-6.07V30.35h6.07v-6.07h-6.07v-6.072H12.144v-6.07H6.072v6.07z" fill="#FF55DC"/><path d="M333.954 6.067H12.145v6.07h12.144v6.069h6.072v6.073h6.072v-6.073H315.74v6.07h6.072v-6.07h6.072v-6.07h12.144V6.063h-6.072l-.002.003z" fill="#FF55DC"/><path d="M333.954 115.336h-6.072v-6.071h-6.072v-6.071h-6.072v6.071H36.431v-6.069h-6.072v6.069h-6.072v6.073h-6.072v6.071h-6.072v6.07H340.024v-6.07h-6.072v-6.071l.002-.002z" fill="#BE0097"/><path d="M340.027 12.138v6.07h-12.144v6.071h-6.072v6.07h6.072v66.776h-6.072v6.071h6.072v6.071h6.072v6.068h6.072v6.071h6.072V12.138h-6.072z" fill="#BE0097"/></svg></svg>