<svg width="199" height="200" viewBox="0 0 199 200" fill="none" xmlns="http://www.w3.org/2000/svg">
<path d="M-5.52673e-07 150.287L0 137.644L12.3478 137.644L12.3478 150.287L-5.52673e-07 150.287Z" fill="#ED70D3"/>
<path d="M12.3477 137.644L12.3477 124.713L24.1211 124.713L24.1211 137.644L12.3477 137.644Z" fill="#ED70D3"/>
<path d="M24.1211 124.713L24.1211 112.069L36.756 112.069L36.756 124.713L24.1211 124.713Z" fill="#ED70D3"/>
<path d="M36.7559 112.069L36.7559 99.7129L49.6779 99.7129L49.6779 112.069L36.7559 112.069Z" fill="#ED70D3"/>
<path d="M49.6777 99.7123L49.6777 87.9307L62.3127 87.9307L62.3127 99.7123L49.6777 99.7123Z" fill="#ED70D3"/>
<path d="M199 6.52706e-06L199 12.4885L199 25.1063L199 37.7241L199 49.7126L199 62.3305L199 74.9483L199 87.5661L199 99.5546L199 112.069L186.365 112.069L186.365 124.79L186.365 137.644L174.591 137.644L174.591 150.287L162.243 150.287L162.243 162.069L148.991 162.069L136.686 162.069L136.686 175.287L124.402 175.287L111.793 175.287L99.1836 175.287L86.5746 175.287L73.9655 175.287L62.3126 175.287L62.3126 187.25L62.3126 200L49.6777 200L49.6777 187.25L49.6777 175.264L49.6777 162.069L62.3126 162.069L62.3126 150.026L62.3127 137.408L62.3127 124.79L62.3127 112.069L74.3733 112.069L74.3733 124.79L74.3733 137.408L74.3733 150.026L74.3733 162.069L86.5746 162.069L99.1836 162.069L111.793 162.069L124.626 162.069L124.626 150.287L136.382 150.287L149.608 150.287L149.608 137.644L162.243 137.644L162.243 124.79L162.243 112.069L174.591 112.069L174.591 99.5546L174.591 87.5661L174.591 74.9483L174.591 62.3304L174.591 49.7126L174.591 37.6437L186.365 37.6437L186.365 25.1063L186.365 12.4885L186.365 5.97477e-06L199 6.52706e-06Z" fill="#ED70D3"/>
<path d="M62.313 124.79L62.313 137.408L62.313 150.026L62.313 162.069L49.6781 162.069L49.6781 175.265L49.6781 187.069L36.756 187.069L36.756 175.288L24.1211 175.288L24.1211 162.069L12.3477 162.069L12.3477 150.026L12.3477 137.644L24.1211 137.644L24.1211 124.713L36.756 124.713L36.756 112.069L49.6781 112.069L49.6781 99.7129L62.313 99.7129L62.313 112.173L62.313 124.79Z" fill="#71EA8B"/>
<path d="M174.592 112.069L162.244 112.069L162.244 124.79L162.244 137.643L149.609 137.643L149.609 150.287L136.383 150.287L124.627 150.287L124.627 162.069L111.793 162.069L99.1844 162.069L86.5753 162.069L74.374 162.069L74.374 150.025L74.374 137.408L74.374 124.79L74.374 112.069L86.5753 112.069L99.1844 112.069L111.793 112.069L124.403 112.069L136.687 112.069L136.687 99.7123L148.992 99.7123L162.244 99.7123L162.244 87.9307L174.592 87.9307L174.592 99.5542L174.592 112.069Z" fill="#71EA8B"/>
</svg>
