<svg width="353" height="134" viewBox="0 0 353 134" fill="none" xmlns="http://www.w3.org/2000/svg">
<path d="M24.2881 36.4232V42.4939V48.5646V54.6333H30.3581V48.5646V42.4939V36.4232V30.3525H24.2881V36.4232Z" fill="#71EA8B"/>
<path d="M36.4295 24.2822H30.3574V30.353H36.4295V24.2822Z" fill="#71EA8B"/>
<path d="M54.6459 18.2109H48.5738H42.5018H36.4297V24.2816H42.5018H48.5738H54.6459H60.718V18.2109H54.6459Z" fill="#71EA8B"/>
<path d="M36.4305 97.1279H30.3584V103.199H36.4305V97.1279Z" fill="#910072"/>
<path d="M30.3611 103.198H24.2891V109.269H30.3611V103.198Z" fill="#910072"/>
<path d="M24.2889 109.268H18.2168V115.338H24.2889V109.268Z" fill="#910072"/>
<path d="M18.2166 115.338H12.1445V121.409H18.2166V115.338Z" fill="#910072"/>
<path d="M12.1443 121.409H6.07227V127.48H12.1443V121.409Z" fill="#910072"/>
<path d="M333.495 127.477H235.54H230.729H12.1445V133.547H242.875H248.604H340.028V127.477H333.497H333.495Z" fill="#910072"/>
<path d="M309.418 103.196H239.888H236.801H36.4307V109.267H242.873H246.208H315.738V103.196H309.418Z" fill="#910072"/>
<path d="M321.81 97.126H315.738V103.197H321.81V97.126Z" fill="#910072"/>
<path d="M327.882 103.196H321.81V109.267H327.882V103.196Z" fill="#910072"/>
<path d="M333.954 109.268H327.882V115.338H333.954V109.268Z" fill="#910072"/>
<path d="M340.026 115.336H333.954V121.407H340.026V115.336Z" fill="#910072"/>
<path d="M346.098 121.406H340.026V127.477H346.098V121.406Z" fill="#910072"/>
<path d="M346.098 12.1377V18.2084V24.2791V30.3498V36.4205V42.4912V48.5619V54.6326V60.7012V66.772V72.8427V78.9134V84.9841V91.0548V97.1255V103.196V109.267V115.335V121.406H352.17V115.335V109.267V103.196V97.1255V91.0548V84.9841V78.9134V72.8427V66.772V60.7012V54.6326V48.5619V42.4912V36.4205V30.3498V24.2791V18.2084V12.1377H346.098Z" fill="#910072"/>
<path d="M327.882 91.0555V84.9848V78.9141V72.8434V66.7727V60.702V54.6334V48.5627V42.492V36.4213V30.3506H321.81V36.4213V42.492V48.5627V54.6334V60.702V66.7727V72.8434V78.9141V84.9848V91.0555V97.1262H327.882V91.0555Z" fill="#910072"/>
<path d="M321.81 24.2793H315.738V30.35H321.81V24.2793Z" fill="#910072"/>
<path d="M327.882 18.209H321.81V24.2797H327.882V18.209Z" fill="#910072"/>
<path d="M340.026 18.2084V12.1377H333.954H327.882V18.2084H333.954H340.026Z" fill="#910072"/>
<path d="M346.098 6.06738H340.026V12.1381H346.098V6.06738Z" fill="#910072"/>
<path d="M30.3611 18.21H24.2891V24.2807H30.3611V18.21Z" fill="#FFCBF4"/>
<path d="M18.2166 18.2103H24.2887V12.1396H18.2166H12.1445V18.2103H18.2166Z" fill="#FFCBF4"/>
<path d="M12.1443 6.06934H6.07227V12.14H12.1443V6.06934Z" fill="#FFCBF4"/>
<path d="M24.2891 60.7025V66.7732V72.8439V78.9146V84.9853V91.056V97.1267H30.3591V91.056V84.9853V78.9146V72.8439V66.7732V60.7025V54.6318H24.2891V60.7025Z" fill="#FFCBF4"/>
<path d="M0 18.2103V24.281V30.3518V36.4225V42.4932V48.5639V54.6325V60.7032V66.7739V72.8446V78.9153V84.986V91.0567V97.1274V103.198V109.267V115.337V121.408H6.07207V115.337V109.267V103.198V97.1274V91.0567V84.986V78.9153V72.8446V66.7739V60.7032V54.6325V48.5639V42.4932V36.4225V30.3518V24.281V18.2103V12.1396H0V18.2103Z" fill="#FFCBF4"/>
<path d="M307.237 0H290.844H274.449H258.056H241.662H225.267H208.874H192.479H176.084H159.692H143.297H126.902H110.509H94.1144H77.7196H61.3269H44.9321H28.5373H12.1445V6.06864H28.5373H44.9321H61.3269H77.7196H94.1144H110.509H126.902H143.297H159.692H176.084H192.479H208.874H225.267H241.662H258.056H274.449H290.844H307.237H323.631H340.026V0H323.631H307.237Z" fill="#FFCBF4"/>
<path d="M273.235 18.21H251.984H230.731H209.479H188.228H166.977H145.726H124.472H103.221H81.97H60.7188V24.2807H81.97H103.221H124.472H145.726H166.977H188.228H209.479H230.731H251.984H273.235H294.486H315.738V18.21H294.486H273.235Z" fill="#FFCBF4"/>
<path d="M6.07227 18.2094V109.266V115.336V121.407H12.1443V115.336H18.2164V109.266H24.2885V103.197H30.3585V97.1264H24.2885V30.3508H30.3585V24.2801H24.2885V18.2094H12.1443V12.1387H6.07227V18.2094Z" fill="#FF55DC"/>
<path d="M333.954 6.06652H24.2887H18.2166H12.1445V12.1372H24.2887V18.2059H30.3608V24.2786H36.4328V18.2059H315.74V24.2766H321.812V18.2059H327.884V12.1352H340.028V6.06445H333.956L333.954 6.06652Z" fill="#FF55DC"/>
<path d="M333.954 115.336H327.882V109.265H321.81V103.194H315.738V109.265H36.4309V103.196H30.3588V109.265H24.2867V115.338H18.2147V121.409H12.1426V127.479H24.2867H327.88H340.024V121.409H333.952V115.338L333.954 115.336Z" fill="#BE0097"/>
<path d="M340.027 12.1377V18.2084H327.883V24.2791H321.811V30.3498H327.883V97.1255H321.811V103.196H327.883V109.267H333.955V115.335H340.027V121.406H346.099V115.335V109.267V18.2084V12.1377H340.027Z" fill="#BE0097"/>
</svg>
